PathFileType	4	(X/Y/Z)	C:/Users/opensim2020/Desktop/walking_exp_matlab/subject01_walking08_straight_02.trc																																																																																																																															
DataRate	CameraRate	NumFrames	NumMarkers	Units	OrigDataRate	OrigDataStartFrame	OrigNumFrames																																																																																																																											
100	100	8	43	mm	100	2040	311																																																																																																																											
Frame#	Time	LFHD			RFHD			LBHD			RBHD			C7			T10			CLAV			STRN			RBAK			LSHO			LUPA			LELB			LFRM			LWRA			LWRB			LFIN			RSHO			RUPA			RELB			RFRM			RWRA			RWRB			RFIN			LASI			RASI			LPSI			RPSI			LTHI			LKNE			LTIB			LANK			LHEE			LTOE			RTHI			RKNE			RTIB			RANK			RHEE			RTOE			*39			*40			*41			*42		
		X1	Y1	Z1	X2	Y2	Z2	X3	Y3	Z3	X4	Y4	Z4	X5	Y5	Z5	X6	Y6	Z6	X7	Y7	Z7	X8	Y8	Z8	X9	Y9	Z9	X10	Y10	Z10	X11	Y11	Z11	X12	Y12	Z12	X13	Y13	Z13	X14	Y14	Z14	X15	Y15	Z15	X16	Y16	Z16	X17	Y17	Z17	X18	Y18	Z18	X19	Y19	Z19	X20	Y20	Z20	X21	Y21	Z21	X22	Y22	Z22	X23	Y23	Z23	X24	Y24	Z24	X25	Y25	Z25	X26	Y26	Z26	X27	Y27	Z27	X28	Y28	Z28	X29	Y29	Z29	X30	Y30	Z30	X31	Y31	Z31	X32	Y32	Z32	X33	Y33	Z33	X34	Y34	Z34	X35	Y35	Z35	X36	Y36	Z36	X37	Y37	Z37	X38	Y38	Z38	X39	Y39	Z39	X40	Y40	Z40	X41	Y41	Z41	X42	Y42	Z42	X43	Y43	Z43
																																																																																																																																		
234	2.33	283.29321	1675.4353	-1493.7323	300.34818	1682.0752	-1380.85303	171.26633	1621.04712	-1482.20667	185.9883	1626.79468	-1361.73157	148.16472	1431.6853	-1441.77051	123.62676	1136.13928	-1425.93274	292.815	1366.73132	-1437.37109	341.80896	1213.94495	-1443.45862	100.00702	1233.27319	-1364.20178	237.73009	1395.72607	-1600.4281	224.85988	1209.89465	-1684.08765	226.15428	1056.1167	-1683.30005	288.88226	960.03546	-1706.85974	395.46106	870.44647	-1687.71179	342.79245	850.75885	-1711.17957	407.47638	796.5813	-1720.61621	226.9254	1390.0155	-1286.66443	169.98987	1187.37292	-1188.3186	170.64166	1062.47571	-1188.59351	198.12491	944.97491	-1159.64941	279.02875	828.7384	-1179.03845	234.64655	829.07947	-1141.00903	271.48969	750.97388	-1144.72009	296.36978	930.05591	-1534.78552	310.51804	935.34094	-1318.39478	112.97031	941.40845	-1470.38354	125.02357	947.14978	-1325.4165	278.40311	598.36279	-1601.10693	267.79654	464.79382	-1597.04297	119.16162	356.38638	-1602.90466	-48.71008	216.60242	-1549.45667	-87.30685	232.93623	-1490.23743	-9.37974	68.22733	-1551.02075	289.58441	601.53406	-1268.17432	319.2807	447.30981	-1300.95862	277.47113	275.32825	-1298.97498	259.66379	71.60069	-1349.32324	208.96017	34.01276	-1397.53931	401.08569	36.06434	-1357.47583	284.00662	1714.02014	-1403.005	-1973.01086	1023.40125	3102.03027	-2012.57056	1022.01373	3140.68335	NaN	NaN	NaN
235	2.34	290.22275	1675.92371	-1492.93091	307.32846	1682.66235	-1380.08032	178.40111	1621.11731	-1481.39648	193.09482	1626.94812	-1360.95862	155.19977	1432.42615	-1441.54016	130.62479	1136.78223	-1424.92908	300.31052	1366.90063	-1436.69617	348.93109	1213.96851	-1442.75391	107.20859	1234.06287	-1363.26306	245.24672	1396.13708	-1599.73157	230.76215	1210.21265	-1683.03552	230.63173	1056.41199	-1681.47205	291.68085	959.34717	-1705.25183	396.89407	868.1543	-1686.58569	343.84982	849.24628	-1709.61548	407.647	794.07269	-1719.45923	234.27794	1390.47461	-1286.11377	179.0412	1187.73865	-1187.09802	180.05487	1062.83044	-1187.15869	208.3528	945.60681	-1158.22339	289.69986	829.80463	-1177.88403	245.78658	829.95795	-1139.51245	282.8147	752.12909	-1143.1936	303.18579	930.52789	-1533.75098	316.92014	935.38214	-1317.10596	119.86239	941.94745	-1469.94165	131.45958	947.46234	-1324.98206	290.95047	599.92737	-1600.99622	282.67517	466.40704	-1596.95728	134.08353	358.31912	-1602.23413	-34.21763	219.41183	-1548.7583	-73.01398	234.49248	-1489.11633	6.69752	71.77383	-1553.66064	294.1792	601.2326	-1267.74036	322.77505	446.81845	-1300.86096	279.86832	274.84106	-1299.00122	259.77182	71.63559	-1349.35474	208.91479	34.19148	-1397.75537	401.11707	36.03992	-1357.53882	290.71155	1714.53186	-1402.20227	-1973.2218	1023.40356	3101.88379	-2012.53369	1022.17578	3140.62427	NaN	NaN	NaN
236	2.35	297.16565	1676.43909	-1492.23303	314.19952	1683.17188	-1379.34558	185.51921	1621.25549	-1480.68518	200.22966	1627.13977	-1360.21436	162.6711	1432.97754	-1440.8822	137.54729	1137.42505	-1424.08801	307.77975	1367.20276	-1436.09863	355.96149	1214.08508	-1442.11023	114.31081	1234.80591	-1362.46667	252.60999	1396.60901	-1599.08887	236.69531	1210.52783	-1682.10803	235.07788	1056.76892	-1679.69543	294.37231	958.72552	-1703.69946	398.27649	865.92706	-1685.49023	344.7179	847.79034	-1708.16711	407.60175	791.59875	-1718.24463	241.64963	1391.07788	-1285.59546	188.04124	1188.17834	-1186.06433	189.31163	1063.3053	-1185.8219	218.53709	946.28455	-1156.87793	300.41537	830.91315	-1176.72107	256.74139	831.14423	-1137.83972	294.22842	753.41852	-1141.58472	309.67883	931.08417	-1532.56226	323.27023	935.50861	-1315.86658	126.74533	942.651	-1469.61047	137.81599	947.73944	-1324.61487	303.2999	601.64655	-1600.93811	297.27423	468.18845	-1596.89856	148.7437	360.20618	-1601.3418	-19.08552	221.1037	-1548.29834	-58.39014	234.9707	-1488.15735	24.09411	74.59159	-1555.76172	298.79446	600.88953	-1267.44519	325.51923	446.17764	-1301.05603	282.2392	274.63068	-1298.98328	259.95532	71.56904	-1349.40723	208.96873	34.14927	-1397.65637	401.13184	36.06811	-1357.5968	297.55124	1715.03674	-1401.46863	-1973.07556	1023.39105	3101.73779	-2012.43701	1021.92767	3140.82983	NaN	NaN	NaN
237	2.36	304.16528	1676.89026	-1491.54041	321.26929	1683.67139	-1378.6521	192.63878	1621.44543	-1480.00476	207.44516	1627.30371	-1359.52759	170.07195	1433.48621	-1440.255	144.44061	1138.08386	-1423.30273	315.22549	1367.65637	-1435.66187	362.97772	1214.18018	-1441.46082	121.45068	1235.53394	-1361.69324	259.93134	1397.09729	-1598.53088	242.63924	1210.89539	-1681.29053	239.42998	1057.17908	-1678.05786	296.98074	958.16071	-1702.1687	399.54236	863.70282	-1684.30469	345.52756	846.39075	-1706.54773	407.37076	789.24475	-1717.05847	249.25041	1391.51135	-1285.11621	196.76311	1188.54919	-1185.0011	198.52684	1063.71753	-1184.55261	228.64117	947.02618	-1155.58936	311.16663	832.1311	-1175.60425	268.04669	831.98273	-1136.45129	305.79684	754.75055	-1140.04419	316.0408	931.60822	-1531.29285	329.56509	935.59979	-1314.6106	133.59125	943.39966	-1469.32202	144.1304	948.10962	-1324.2229	315.29272	603.47784	-1600.78821	311.54306	470.13577	-1596.81677	163.39409	361.95172	-1600.44788	-3.44757	221.85094	-1547.86475	-43.5815	234.39607	-1487.55872	42.97905	77.5339	-1557.79919	303.4129	600.5827	-1267.14221	328.93741	445.77579	-1300.8103	284.54507	274.48087	-1299.04407	260.15616	71.53606	-1349.49658	208.77907	33.86532	-1397.36768	401.18796	36.05373	-1357.66357	304.48245	1715.5011	-1400.80334	-1973.08765	1023.51459	3101.98999	-2012.50696	1022.05475	3140.66846	NaN	NaN	NaN
238	2.37	311.20233	1677.31958	-1490.96094	328.34949	1684.09998	-1378.04517	199.85045	1621.66602	-1479.33374	214.63521	1627.56592	-1358.88062	177.28169	1434.15393	-1439.89697	151.28874	1138.69153	-1422.56604	322.4184	1367.75476	-1435.09839	369.89563	1214.30847	-1440.85168	128.47926	1236.1908	-1360.98157	267.17648	1397.50305	-1598.03503	248.51694	1211.245	-1680.44397	243.80756	1057.66199	-1676.53308	299.59039	957.64661	-1700.72595	400.74405	861.5835	-1683.24414	346.23672	845.08508	-1705.0697	407.12091	786.90222	-1715.83521	256.56839	1391.9812	-1284.65063	205.22469	1189.01318	-1184.07361	207.62872	1064.11926	-1183.37317	238.71196	947.71924	-1154.33716	321.7659	833.33014	-1174.63855	279.21951	833.01709	-1135.13	317.32495	756.14056	-1138.5387	323.65836	932.53638	-1530.47095	335.82028	935.7157	-1313.36157	140.45552	944.18524	-1469.08533	150.39053	948.50195	-1324.02051	327.08984	605.44629	-1600.64709	325.41211	472.08356	-1596.63293	178.04355	363.47049	-1599.79639	12.52783	221.70465	-1547.64832	-28.55673	232.76088	-1487.16589	63.38889	78.96954	-1558.5094	307.73846	600.16144	-1266.91809	331.85287	445.42383	-1300.54688	286.30615	274.13708	-1298.99097	260.41196	71.54056	-1349.5708	208.8132	33.98563	-1397.41382	401.24387	35.97468	-1357.69482	311.55719	1715.91333	-1400.20044	-1973.11902	1023.42236	3102.00635	-2012.46777	1021.96716	3140.61523	NaN	NaN	NaN
239	2.38	318.33905	1677.69763	-1490.37781	335.54324	1684.51733	-1377.56653	207.03156	1621.92029	-1478.76672	221.87773	1627.83643	-1358.26489	184.6487	1434.4939	-1439.23511	158.07164	1139.28223	-1421.90125	329.59039	1367.9917	-1434.64343	376.84827	1214.46411	-1440.26807	135.61092	1236.83716	-1360.30896	274.36047	1397.90137	-1597.56091	254.45427	1211.53638	-1679.69763	248.20212	1058.07581	-1675.08923	302.22675	957.19836	-1699.36951	401.89029	859.50525	-1682.18933	346.96103	843.80396	-1703.61597	406.7413	784.64984	-1714.65784	263.93243	1392.38232	-1284.22888	213.59744	1189.39075	-1183.18115	216.50623	1064.56885	-1182.25	248.73328	948.4079	-1153.13733	332.75998	834.75482	-1173.48987	290.09113	834.23102	-1133.88257	329.03918	757.68414	-1137.07703	330.46964	933.4549	-1529.37378	342.08218	935.80542	-1312.20764	147.26669	944.94342	-1468.89343	156.73022	948.83429	-1323.76001	338.50195	607.38599	-1600.42957	339.07312	474.25333	-1596.396	192.73744	364.60751	-1599.26318	29.06243	220.72449	-1547.32837	-13.16665	230.01709	-1487.08984	84.83422	80.6569	-1559.37915	311.95602	599.89545	-1266.69385	334.66766	444.76611	-1300.29236	287.75555	273.96021	-1298.85229	260.2807	71.57964	-1349.7937	208.8409	34.11164	-1397.44336	401.28821	35.90279	-1357.74255	318.57086	1716.19495	-1399.59058	-1973.21936	1023.4845	3101.86694	-2012.5304	1022.06549	3140.70996	NaN	NaN	NaN
240	2.39	325.50647	1678.04907	-1489.85742	342.7561	1684.84167	-1377.0105	214.19856	1622.24939	-1478.22949	229.168	1628.07227	-1357.79529	191.90512	1434.93884	-1438.77881	164.83148	1139.84778	-1421.31592	336.75931	1368.21204	-1434.20642	383.74771	1214.60681	-1439.71631	142.67644	1237.38916	-1359.68823	281.46805	1398.26563	-1597.16858	260.32059	1211.86853	-1678.99475	252.60609	1058.53149	-1673.80225	304.88071	956.80505	-1698.09863	403.02777	857.42505	-1681.10461	347.74979	842.66028	-1702.31213	406.51208	782.31757	-1713.34119	271.34506	1392.77551	-1283.79382	221.73837	1189.7926	-1182.30859	225.38469	1064.91919	-1181.09473	258.49384	949.15973	-1152.04163	343.59772	836.1496	-1172.4353	301.14029	835.2901	-1132.6853	340.72736	759.23492	-1135.75598	337.30698	934.32434	-1528.27539	348.31119	935.92017	-1311.09656	153.99861	945.61755	-1468.7345	163.00661	949.12585	-1323.60596	349.76239	609.47516	-1600.25122	352.48346	476.39108	-1596.11902	207.55591	365.32318	-1598.80505	46.26474	218.63788	-1547.11462	2.73223	226.19032	-1487.13635	107.3298	81.69778	-1559.95715	315.94775	599.52917	-1266.52014	337.21799	444.22284	-1300.05176	288.85663	273.87024	-1298.75586	260.51993	71.55539	-1349.82031	208.88229	34.23172	-1397.43677	401.33432	35.80237	-1357.76953	325.82132	1716.55981	-1399.07471	-1973.1936	1023.37982	3101.89355	-2012.53113	1021.99744	3140.56079	NaN	NaN	NaN
241	2.4	332.71069	1678.38318	-1489.43323	350.02841	1685.14478	-1376.57288	221.423	1622.54175	-1477.75037	236.4214	1628.34338	-1357.34021	199.06996	1435.34583	-1438.33557	171.54729	1140.39453	-1420.75208	343.79813	1368.43677	-1433.8656	390.68777	1214.83643	-1439.23645	149.73334	1237.93079	-1359.12646	288.57993	1398.55493	-1596.76941	266.12073	1212.15698	-1678.34534	257.09717	1058.97205	-1672.63428	307.50162	956.46881	-1696.9679	404.18661	855.46576	-1680.09436	348.56207	841.53247	-1701.04822	406.23499	780.19153	-1712.08325	278.53006	1393.23499	-1283.49243	229.66507	1190.15601	-1181.54224	233.96468	1065.30005	-1180.13452	268.41278	949.74829	-1150.86084	354.18945	837.70886	-1171.45227	311.66611	836.35083	-1131.79651	352.46036	760.82813	-1134.48145	344.02219	935.22028	-1527.19421	354.53928	935.97345	-1310.06873	160.66805	946.17841	-1468.55237	169.31374	949.40686	-1323.40698	360.90521	611.50037	-1600.11462	365.81772	478.55557	-1595.76147	222.37454	365.63556	-1598.45471	63.95426	215.78723	-1547.07813	19.46257	221.492	-1487.33557	130.51982	82.31021	-1560.5332	319.72522	599.33575	-1266.2854	339.54382	443.72809	-1299.85339	290.00281	273.76419	-1298.69519	260.68509	71.55077	-1349.9104	209.22037	33.95229	-1398.11987	401.34863	35.73707	-1357.8335	333.06622	1716.85132	-1398.64893	-1973.15503	1023.33423	3101.9812	-2012.52661	1022.03992	3140.58569	NaN	NaN	NaN
